<svg aria-hidden="true" style="position: absolute; width: 0; height: 0; overflow: hidden;" version="1.1" xmlns="http://www.w3.org/2000/svg" xmlns:xlink="http://www.w3.org/1999/xlink">
<defs>
<symbol id="icon-apple" viewBox="0 0 32 32">
<path fill="#999" style="fill: var(--color1, #999)" d="M9.437 31.4c-0.631-0.421-1.191-0.937-1.659-1.533-0.511-0.617-0.984-1.267-1.419-1.939-1.021-1.493-1.82-3.127-2.373-4.848-0.667-2.003-0.991-3.92-0.991-5.796 0-2.093 0.453-3.92 1.336-5.453 0.653-1.2 1.627-2.204 2.8-2.909 1.133-0.707 2.453-1.093 3.787-1.12 0.467 0 0.973 0.067 1.507 0.2 0.387 0.107 0.853 0.28 1.427 0.493 0.733 0.28 1.133 0.453 1.267 0.493 0.427 0.16 0.787 0.227 1.067 0.227 0.213 0 0.52-0.067 0.86-0.173 0.193-0.067 0.56-0.187 1.080-0.413 0.515-0.187 0.923-0.347 1.247-0.467 0.493-0.147 0.971-0.28 1.4-0.347 0.52-0.080 1.036-0.107 1.531-0.067 0.947 0.067 1.813 0.267 2.587 0.56 1.36 0.547 2.457 1.4 3.276 2.613-0.347 0.213-0.667 0.461-0.967 0.733-0.649 0.573-1.2 1.253-1.64 2.007-0.573 1.027-0.867 2.187-0.859 3.36 0.020 1.444 0.387 2.713 1.12 3.813 0.516 0.8 1.205 1.485 2.045 2.048 0.413 0.28 0.776 0.473 1.12 0.6-0.16 0.5-0.336 0.987-0.54 1.467-0.463 1.076-1.013 2.107-1.667 3.080-0.576 0.84-1.029 1.467-1.373 1.88-0.536 0.64-1.053 1.12-1.573 1.463-0.573 0.38-1.247 0.581-1.936 0.581-0.467 0.020-0.933-0.040-1.379-0.169-0.387-0.127-0.768-0.269-1.141-0.431-0.391-0.179-0.795-0.331-1.207-0.453-0.507-0.133-1.027-0.197-1.552-0.196-0.533 0-1.053 0.067-1.547 0.193-0.413 0.117-0.813 0.261-1.209 0.433-0.56 0.233-0.927 0.387-1.14 0.453-0.432 0.128-0.875 0.205-1.32 0.233-0.693 0-1.339-0.2-1.964-0.617zM18.576 6.787c-0.907 0.453-1.768 0.645-2.631 0.581-0.133-0.861 0-1.747 0.36-2.716 0.32-0.827 0.747-1.573 1.333-2.24 0.613-0.693 1.347-1.267 2.173-1.68 0.88-0.453 1.72-0.693 2.52-0.733 0.107 0.907 0 1.8-0.333 2.76-0.304 0.853-0.757 1.64-1.333 2.347-0.58 0.693-1.3 1.267-2.089 1.681z"></path>
</symbol>
<symbol id="icon-baidu" viewBox="0 0 32 32">
<path fill="#2319dc" style="fill: var(--color2, #2319dc)" d="M5.749 16.867c3.48-0.749 3-4.912 2.901-5.821-0.171-1.4-1.821-3.851-4.059-3.653-2.813 0.248-3.224 4.32-3.224 4.32-0.383 1.88 0.909 5.901 4.381 5.153zM12.209 9.879c1.92 0 3.472-2.213 3.472-4.947 0-2.72-1.547-4.933-3.467-4.933s-3.481 2.201-3.481 4.935 1.56 4.947 3.48 4.947zM20.489 10.207c2.573 0.347 4.216-2.4 4.549-4.48 0.333-2.067-1.333-4.48-3.147-4.893-1.827-0.421-4.080 2.499-4.307 4.4-0.24 2.333 0.333 4.653 2.893 4.983zM30.667 13.712c0-0.995-0.817-3.991-3.88-3.991-3.060 0-3.48 2.827-3.48 4.827 0 1.907 0.157 4.56 3.98 4.48 3.807-0.093 3.391-4.32 3.391-5.32zM26.8 22.427c0 0-3.98-3.080-6.301-6.4-3.147-4.903-7.62-2.907-9.112-0.421-1.493 2.511-3.813 4.083-4.14 4.503-0.333 0.413-4.8 2.827-3.805 7.227 1 4.4 4.48 4.32 4.48 4.32s2.56 0.253 5.547-0.413 5.547 0.16 5.547 0.16 6.943 2.333 8.864-2.147c1.899-4.493-1.080-6.813-1.080-6.813z"></path>
</symbol>
<symbol id="icon-buzzfeed" viewBox="0 0 32 32">
<path fill="#e32" style="fill: var(--color3, #e32)" d="M32 16c0 8.836-7.164 16-16 16s-16-7.164-16-16 7.164-16 16-16 16 7.164 16 16zM26.469 15.636l-1.303-9.253-8.667 3.499 3.433 1.983-3.247 5.62-5.62-3.244-5.537 9.587 3.103 1.795 3.749-6.491 5.619 3.243 5.036-8.72z"></path>
</symbol>
<symbol id="icon-facebook" viewBox="0 0 32 32">
<path fill="#1877f2" style="fill: var(--color4, #1877f2)" d="M31.997 15.999c0-8.836-7.163-15.999-15.999-15.999s-15.999 7.163-15.999 15.999c0 7.985 5.851 14.604 13.499 15.804v-11.18h-4.062v-4.625h4.062v-3.525c0-4.010 2.389-6.225 6.043-6.225 1.75 0 3.581 0.313 3.581 0.313v3.937h-2.017c-1.987 0-2.607 1.233-2.607 2.498v3.001h4.437l-0.709 4.625h-3.728v11.18c7.649-1.2 13.499-7.819 13.499-15.804z"></path>
</symbol>
<symbol id="icon-tesla" viewBox="0 0 32 32">
<path fill="#c00" style="fill: var(--color5, #c00)" d="M16 7.149l3.3-4.035c0 0 5.66 0.12 11.295 2.739-1.443 2.181-4.308 3.251-4.308 3.251-0.195-1.919-1.539-2.387-5.805-2.387l-4.481 25.283-4.508-25.288c-4.24 0-5.584 0.472-5.78 2.389 0 0-2.861-1.060-4.305-3.24 5.633-2.62 11.293-2.741 11.293-2.741l3.3 4.029-0.005 0.003h0.005zM16 1.951c4.553-0.040 9.768 0.704 15.104 3.040 0.713-1.291 0.896-1.86 0.896-1.86-5.833-2.315-11.296-3.111-16-3.131-4.704 0.020-10.167 0.813-16 3.132 0 0 0.26 0.7 0.896 1.861 5.336-2.341 10.551-3.080 15.104-3.047z"></path>
</symbol>
<symbol id="icon-windows" viewBox="0 0 32 32">
<path fill="#0078d6" style="fill: var(--color6, #0078d6)" d="M0 4.599l13-1.799v12.601h-13zM14.599 2.599l17.401-2.599v15.2h-17.401zM0 16.8h13v12.601l-13-1.803zM14.599 16.8h17.401v15.2l-17.2-2.401z"></path>
</symbol>
</defs>
</svg>
